Coordinates
version=1
nRows=15
nColumns=34
inDegrees=no

Units are S.I. units (second, meters, Newtons, ...)
If the header above contains a line with 'inDegrees', this indicates whether rotational values are in degrees (yes) or radians (no).

endheader
time	pelvis_tilt	pelvis_list	pelvis_rotation	pelvis_tx	pelvis_ty	pelvis_tz	hip_flexion_r	hip_adduction_r	hip_rotation_r	knee_angle_r	ankle_angle_r	subtalar_angle_r	mtp_angle_r	hip_flexion_l	hip_adduction_l	hip_rotation_l	knee_angle_l	ankle_angle_l	subtalar_angle_l	mtp_angle_l	lumbar_extension	lumbar_bending	lumbar_rotation	arm_flex_r	arm_add_r	arm_rot_r	elbow_flex_r	pro_sup_r	arm_flex_l	arm_add_l	arm_rot_l	elbow_flex_l	pro_sup_l
0.47	-0.0211429	-0.136584	-0.00460766	0.488398	0.954009	-0.183575	-0.166029	0.204159	-0.144444	0.0882105	0.329741	0.265671	0.00456044	0.559886	-0.197544	-0.143524	0.348744	0.0396945	0.0976295	-0.0225268	-0.0664079	0.105819	0.185993	0.143562	-0.233626	0.149067	0.656488	1.55204	-0.193909	-0.114674	-0.122765	0.287109	1.80019
0.48	-0.0234883	-0.135359	-0.0053861	0.499334	0.951886	-0.184591	-0.176116	0.198914	-0.160904	0.0899663	0.342997	0.292629	0.00458302	0.55195	-0.190727	-0.155007	0.286854	0.0516626	0.132594	-0.0225814	-0.0651115	0.105382	0.188184	0.147924	-0.233959	0.153565	0.661881	1.55028	-0.20327	-0.113456	-0.133231	0.280129	1.78594
0.49	-0.0260622	-0.134212	-0.00651821	0.510428	0.949729	-0.185613	-0.185586	0.193587	-0.176136	0.0927006	0.355114	0.317668	0.00460563	0.544665	-0.18439	-0.165676	0.232536	0.0638886	0.164316	-0.0226359	-0.0634097	0.104897	0.190506	0.15202	-0.23415	0.158153	0.666093	1.54872	-0.211926	-0.112427	-0.144238	0.272591	1.77271
0.5	-0.02887	-0.133052	-0.00813088	0.521677	0.947569	-0.18662	-0.194348	0.188093	-0.189647	0.0965623	0.366	0.340183	0.00462826	0.538626	-0.178756	-0.175335	0.187822	0.0755476	0.191078	-0.0226904	-0.0613	0.104216	0.193065	0.155813	-0.234118	0.162757	0.669089	1.54751	-0.219839	-0.111673	-0.155578	0.264351	1.76115
0.51	-0.031867	-0.131702	-0.010266	0.533076	0.945435	-0.187601	-0.202373	0.182271	-0.201035	0.10165	0.375573	0.359568	0.00465091	0.534263	-0.173877	-0.183815	0.1542	0.0857483	0.211468	-0.0227449	-0.0588402	0.103102	0.195899	0.159263	-0.23377	0.167258	0.670866	1.54681	-0.226958	-0.111291	-0.166934	0.25534	1.75162
0.52	-0.0349466	-0.129896	-0.0128765	0.54462	0.943359	-0.188555	-0.209724	0.17588	-0.210017	0.108005	0.383743	0.375258	0.00467358	0.531735	-0.169596	-0.19098	0.132357	0.0935695	0.224501	-0.0227994	-0.0561584	0.101229	0.198971	0.162326	-0.233006	0.1715	0.671454	1.54684	-0.233228	-0.111383	-0.177913	0.245574	1.7443
0.53	-0.0379491	-0.127291	-0.0158351	0.556307	0.941367	-0.189492	-0.216555	0.16861	-0.216457	0.115619	0.390416	0.386786	0.00469628	0.530865	-0.165526	-0.196702	0.122038	0.098109	0.229671	-0.0228538	-0.0534542	0.0982066	0.202181	0.164953	-0.231726	0.175296	0.670911	1.54776	-0.238599	-0.112043	-0.188093	0.235158	1.73918
0.54	-0.0406178	-0.123526	-0.0189657	0.568151	0.939524	-0.190435	-0.223091	0.160102	-0.220371	0.12445	0.395477	0.39383	0.004719	0.531162	-0.161085	-0.200845	0.122054	0.0985616	0.226929	-0.0229082	-0.0509554	0.0936135	0.205381	0.167085	-0.229853	0.178454	0.669327	1.54974	-0.243041	-0.113342	-0.19709	0.224304	1.73616
0.55	-0.0426968	-0.118239	-0.0220704	0.580162	0.937871	-0.19141	-0.229584	0.149998	-0.221914	0.134466	0.398781	0.396245	0.00474174	0.531891	-0.155579	-0.203268	0.130469	0.09433	0.216619	-0.0229626	-0.0489103	0.0870659	0.2084	0.168659	-0.227335	0.1808	0.666815	1.55286	-0.246557	-0.115318	-0.204627	0.213336	1.73507
0.56	-0.0439519	-0.111142	-0.0249658	0.592351	0.936443	-0.192446	-0.236247	0.137998	-0.221339	0.145684	0.400133	0.394062	0.0047645	0.532227	-0.148321	-0.203844	0.144927	0.0851509	0.1994	-0.0230169	-0.0475321	0.0782801	0.211069	0.169606	-0.224169	0.182212	0.663505	1.55715	-0.249187	-0.117962	-0.210583	0.202686	1.73567
0.57	-0.0442229	-0.102081	-0.0275104	0.604728	0.935267	-0.193571	-0.243173	0.123919	-0.218941	0.158206	0.399262	0.387453	0.00478729	0.531431	-0.138766	-0.202497	0.163035	0.0712011	0.176162	-0.0230713	-0.0469488	0.0671386	0.213243	0.169863	-0.220402	0.182651	0.659529	1.56252	-0.251011	-0.121216	-0.215018	0.192863	1.73767
0.58	-0.0434732	-0.0910873	-0.029622	0.617296	0.934359	-0.194803	-0.250257	0.107765	-0.214995	0.172253	0.395788	0.376668	0.00481011	0.529018	-0.126637	-0.199226	0.182733	0.0531452	0.147942	-0.0231256	-0.0471589	0.0537425	0.214812	0.169376	-0.216142	0.182181	0.65502	1.56882	-0.252141	-0.124971	-0.21815	0.184406	1.74069
0.59	-0.0418224	-0.0784022	-0.0312787	0.630049	0.933719	-0.196151	-0.257145	0.0897602	-0.209698	0.188179	0.389209	0.361963	0.00483294	0.524868	-0.111997	-0.194118	0.202551	0.0321028	0.11585	-0.0231799	-0.0480071	0.0384339	0.215714	0.168109	-0.211548	0.18098	0.650092	1.57579	-0.252705	-0.129078	-0.220296	0.177804	1.74433
0.6	-0.0395516	-0.0644665	-0.0325085	0.642968	0.933335	-0.197613	-0.263228	0.0703555	-0.20315	0.206469	0.378897	0.343553	0.0048558	0.519253	-0.0952601	-0.187347	0.221712	0.00953467	0.0810195	-0.0232342	-0.0491898	0.0217777	0.215926	0.166046	-0.206821	0.179333	0.644844	1.58309	-0.252824	-0.133366	-0.221781	0.17342	1.74816
0.61	-0.0370775	-0.0498659	-0.0333713	0.656021	0.933177	-0.199177	-0.267675	0.0501803	-0.195374	0.227711	0.364141	0.321595	0.00487869	0.512772	-0.0771352	-0.179178	0.240073	-0.0129234	0.0445957	-0.0232884	-0.0502985	0.00449573	0.215462	0.163205	-0.202179	0.177594	0.639346	1.59032	-0.252584	-0.137662	-0.222863	0.171423	1.75181
